<?xml version="1.0" encoding="UTF-8"?>
<svg width="32" height="32" viewBox="0 0 32 32" fill="none" xmlns="http://www.w3.org/2000/svg">
  <!-- Door icon -->
  <path d="M6 4H26V28H6V4ZM20 16C20.5523 16 21 15.5523 21 15C21 14.4477 20.5523 14 20 14C19.4477 14 19 14.4477 19 15C19 15.5523 19.4477 16 20 16Z" stroke="#60A5FA" stroke-width="1.5" stroke-linecap="round" stroke-linejoin="round"/>
  <!-- Shield icon -->
  <path d="M24 8C24 8 22.5 9 20 9C17.5 9 16 8 16 8C16 8 14.5 9 12 9C9.5 9 8 8 8 8V15C8 18.87 11.13 22 15 22L16 22.5L17 22C20.87 22 24 18.87 24 15V8Z" stroke="#93C5FD" stroke-width="2" stroke-linecap="round" stroke-linejoin="round"/>
  <!-- Checkmark -->
  <path d="M14 15L16 17L20 13" stroke="#93C5FD" stroke-width="2" stroke-linecap="round" stroke-linejoin="round"/>
</svg> 